<svg id="Layer_1" data-name="Layer 1" xmlns="http://www.w3.org/2000/svg" width="317" height="375" viewBox="0 0 317 375">
  <defs>
    <style>
      .cls-1 {
        fill: #fff;
      }
    </style>
  </defs>
  <title>Artboard 1</title>
  <path class="cls-1" d="M80.61,240.79a3.75,3.75,0,0,1-1.76.61c-.53.06-1.19.13-1.19.76s.59.7,1.66.7,1.82,0,2.54-.1,1.36-.09,2.33-.09c1.85,0,3.22.09,4.31.16.81,0,1.52.09,2.22.09h.1a3.15,3.15,0,0,0,2-.4.56.56,0,0,0,.18-.42c0-.52-.55-.63-1.09-.73a4.25,4.25,0,0,1-1-.27,4.06,4.06,0,0,1-1.48-1.67,47.59,47.59,0,0,1-1.2-7.48l-1.92-16.14c-.43-4.07-1.57-14-2.11-18.45-.08-.66-.38-1.12-.8-1.23a.79.79,0,0,0-.79.25h0c-.19.07-.29.29-.41.54l-.06.11c-.15.31-.29.65-.44,1s-.32.78-.52,1.18c-1,2.36-2.16,4.72-3.23,7-.72,1.53-1.44,3.06-2.15,4.61L67,230.59a4.87,4.87,0,0,1-.49.83,6.91,6.91,0,0,1-.85-1.53s-1.54-3.35-2.24-4.68c-1.39-2.81-2.73-5.69-4-8.47-1.52-3.26-3.09-6.63-4.74-9.91-.36-.76-1-2.13-1.66-3.59s-1.3-2.84-1.8-3.89c-.32-.77-.83-1.93-.84-1.94-.13-.27-.62-1.16-1.23-1.16a.74.74,0,0,0-.65.45c-.32.22-.32.85-.32.85l-1.9,13.65-2.56,23.12v.17c-.25,2-.58,4.7-2,6a3.37,3.37,0,0,1-.94.61l-.46.23-.52.2c-.5.17-1,.33-1,.74,0,.76.89.76,1.47.76s1.34-.07,2.19-.14,2.08-.18,2.93-.18,2,.09,3.13.17,1.87.15,2.45.15c.34,0,1.4,0,1.4-.7a.59.59,0,0,0-.35-.49,4.7,4.7,0,0,0-1-.23,5,5,0,0,1-2.1-.71c-.71-.43-1.1-1.81-1.1-3.89,0-1.09.13-2.86.25-4.43l1.74-20.19a2.11,2.11,0,0,1,.14-.62l.15.2.07-.07a4.21,4.21,0,0,1,.44.82l13,27.63a1.88,1.88,0,0,0,1.38,1c.88,0,1.68-1,2.66-3.23l10.24-23c.05-.09.13-.27.22-.49,1-2.18,1.37-2.67,1.5-2.71a1,1,0,0,1,.12.49l2,18.45A45.6,45.6,0,0,1,82,235.7C82,237.57,81.87,240.07,80.61,240.79Z"/>
  <path class="cls-1" d="M118.07,243.69c15.83,0,21.45-13.28,21.45-24.65,0-9.75-5.88-18.39-14.64-21.5a25.5,25.5,0,0,0-8.73-1.23c-9.79,0-18.07,6.9-20.61,17.16a28.12,28.12,0,0,0-.71,6.92C94.83,234.33,104.17,243.69,118.07,243.69ZM116.22,199c6.73,0,10.65,4.52,12.75,8.31a35.52,35.52,0,0,1,3.9,16.67c0,8.24-3.73,17-14.22,17-11.66,0-17-11.95-17-23.06C101.67,208.78,105.49,199,116.22,199Z"/>
  <path class="cls-1" d="M186.9,198.79h0a8.3,8.3,0,0,1,.89-.14c.53-.06,1-.12,1-.74a.69.69,0,0,0-.2-.51,1.6,1.6,0,0,0-1.13-.26h-.14a15.7,15.7,0,0,0-1.83.08c-1,.05-2.09.12-3.3.12s-2.52-.09-3.67-.16c-.89-.05-1.65-.1-2.22-.1-1.26,0-1.53.48-1.53.89s.55.44.65.44l.26.05a7.31,7.31,0,0,1,.91.21,5.69,5.69,0,0,1,2.58,1c.88.64,1.43,8.78,1.43,14.34V227.2c0,9.43-4.47,13.45-14.93,13.45-4.89,0-9-1.94-11.18-5.32-1.23-2-1.82-4.63-1.82-8.13V210.8c0-5.82.17-11.13,2.22-12.13a6.51,6.51,0,0,1,.87-.25c.84-.21,1.39-.35,1.39-.75,0-.69-.82-.69-1.21-.69a15.4,15.4,0,0,0-2.11.11c-1.17.09-2.62.21-4.23.21-1.27,0-2.52-.08-3.61-.15s-1.86-.11-2.67-.11c-.51,0-1.27,0-1.27.89,0,.28.31.37.84.52l.38.11a4.7,4.7,0,0,1,2.44,1.09c.56.56.56,4.26.56,6V228.9c0,9.82,6.27,14.79,18.63,14.79,13,0,19.27-5.9,19.27-18.05V206.29C184.15,203.21,184.08,199.38,186.9,198.79Z"/>
  <path class="cls-1" d="M237.31,198.45c.81-.18,1.44-.32,1.44-.8a.53.53,0,0,0-.17-.4,1.82,1.82,0,0,0-1.26-.24h-.17c-.53,0-1.28.06-2.08.14s-2,.18-2.91.18a27.66,27.66,0,0,1-2.81-.22,19.74,19.74,0,0,0-2-.17c-.43,0-1.21,0-1.21.76,0,.45.58.54,1,.62h.12a3,3,0,0,1,2.27,1.12c.63.84,1,4.71,1,7.92l.2,23.05v.19a3.36,3.36,0,0,1-.19,1.13l-.14-.14v.07l-.16-.16a4.18,4.18,0,0,0-.39-.37c-.68-.67-1.42-1.44-2.22-2.28-1-1-2-2-3.09-3.16-1.34-1.42-2.75-2.88-4.17-4.36-2-2.1-4.11-4.28-6.08-6.4-6.84-7.34-15.41-16.18-15.5-16.27l-.29-.29c-1.05-1.07-2-2-2.64-2-.83,0-.83,1.58-.83,4V234.5c0,2.49-.46,5.49-1.75,6.46a4.06,4.06,0,0,1-1.53.54c-.62.13-1.2.25-1.2.75s.77.57,1.27.57,1.28,0,2.2-.08c1.09,0,2.33-.11,3.25-.11s1.94.08,3,.16,2,.16,2.71.16c.49,0,1.65,0,1.65-1,0-.39-.54-.45-1.31-.54h-.18a4.1,4.1,0,0,1-2-.79c-1.17-.89-1.69-3.66-1.69-6V212.3a26.66,26.66,0,0,1,.07-3.14,1.07,1.07,0,0,1,.08-.3c.22,0,.66.25,1.51,1.1a15.37,15.37,0,0,1,1.92,1.95c.65.73,1.39,1.56,2.21,2.37,1.19,1.27,2.44,2.59,3.66,3.87,1.87,2,3.64,3.83,4.92,5.22S227.06,237.92,230.5,241c.16.16.33.35.51.55,1.24,1.37,2.24,2.41,2.94,2.41a.52.52,0,0,0,.39-.17,4.22,4.22,0,0,0,.38-2.53V207c0-3.54.39-7.62,1-8.05A5.72,5.72,0,0,1,237.31,198.45Z"/>
  <path class="cls-1" d="M263.44,228.26V210.2c0-3.84.07-6.91.13-8.5.06-.79.06-.79.84-.79h.09l.07-.06a17,17,0,0,1,3.87,0h1a18.18,18.18,0,0,1,4.79.44,4.2,4.2,0,0,1,1.87,1,2.36,2.36,0,0,1,.15.59c.1.52.2,1.11.68,1.11.3,0,.5-.31.63-1a9.85,9.85,0,0,0,.12-1.05,10.2,10.2,0,0,1,.2-1.44h0a11,11,0,0,1,.27-1.32,5.71,5.71,0,0,0,.24-1.28.79.79,0,0,0-.68-.88h-.08c-.52,0-1.58,0-2.81.1-1.64.07-3.68.16-5,.16H251.73a45.93,45.93,0,0,1-6-.38,4.49,4.49,0,0,1-.85-.26,2.66,2.66,0,0,0-1-.26c-.51,0-.64.57-.76,1.18-.06.24-.11.49-.19.74s-.17.66-.29,1.1a21.53,21.53,0,0,0-.74,3.19c0,.33,0,1.21.7,1.21.48,0,.57-.42.64-.73a1.28,1.28,0,0,1,.24-.63c.08-.07.16-.17.26-.28a3,3,0,0,1,2.25-1.31h10.38c.25,0,.28.07.36.32a1.36,1.36,0,0,0,.2.4,21.09,21.09,0,0,1,.4,4.54v24.08c0,3.42-.15,8.76-.5,9.91s-1.55,1.24-2.68,1.36H254c-.59.08-1.56.22-1.56.82s.76.57,1.21.57c.64,0,1.75,0,2.93-.1,1.44-.07,3.09-.15,4.24-.15.77,0,1.94,0,3.06.09s2.23.1,3,.1,2,0,2-.76c0-.29-.26-.52-.73-.64a14.71,14.71,0,0,0-1.6-.06,3.54,3.54,0,0,1-2.26-1.3c-.91-1.34-.88-6.52-.86-10.3Z"/>
  <path class="cls-1" d="M39.33,333.65c.07.13.24.79.24,4.18v12c0,5.72,3.67,8.62,10.9,8.62s11-3.51,11-10.43V337c0-1.61-.06-3.29.94-3.72a4.24,4.24,0,0,1,1-.3.62.62,0,0,0,.69-.62.67.67,0,0,0-.2-.5,1.22,1.22,0,0,0-.93-.21h-.73c-.54,0-1.35.11-2.28.11s-1.9-.06-2.57-.11h-.75c-.32,0-1.18,0-1.18.73,0,.42.43.52.87.62a4.29,4.29,0,0,1,1.7.69c.36.35.76,3.42.76,7.26v7.92c0,5.22-2.09,7.25-7.47,7.25-6.15,0-6.82-5.07-6.82-7.25v-9.18c0-5.6.38-6.24.89-6.54A2.84,2.84,0,0,1,46,333c.43-.1.87-.2.87-.62,0-.74-.77-.74-1.1-.74h-.62c-.63,0-1.68.14-3,.14-.9,0-1.75,0-2.49-.09-.56,0-1,0-1.41,0s-1,0-1,.81c0,.35.33.44.82.58A3.47,3.47,0,0,1,39.33,333.65Z"/>
  <path class="cls-1" d="M89.62,349.69c-1-1-5.22-4.94-8.27-8.18-4.91-5.22-8.8-8.84-8.83-8.86-1.41-1.41-1.82-1.41-2-1.41-.74,0-.77.56-.77,2.32V353c0,1.69-.36,2.79-1.09,3.36a1.89,1.89,0,0,1-.85.32c-.32.07-.81.18-.81.66,0,.7.57.7.92.7l1,0c.76,0,1.79-.09,2.36-.09a19.44,19.44,0,0,1,2.07.08,11.61,11.61,0,0,0,1.51.06c.57,0,1.28,0,1.28-.77,0-.54-.57-.62-1.13-.7a3,3,0,0,1-1.32-.39,4.32,4.32,0,0,1-.84-3.07V339.85h0a1.53,1.53,0,0,1,.37.34c.06,0,5.79,5.72,7.07,7.1s9.19,9.47,9.52,9.81l.41.44c.63.67,1,1.12,1.56,1.12a.65.65,0,0,0,.47-.2,2.64,2.64,0,0,0,.31-1.75v-19.1c0-2.71.28-4,.46-4.21a2.75,2.75,0,0,1,1-.29c.5-.08,1.12-.17,1.12-.75a.6.6,0,0,0-.18-.44,1.47,1.47,0,0,0-1.1-.23h-.1a6.24,6.24,0,0,0-1,.07c-.63,0-1.41.11-2,.11s-1.37-.06-2-.1h-.85c-.31,0-1.13,0-1.13.7s.6.62,1,.66a1.58,1.58,0,0,1,1.21.46c.25.35.51,1.8.51,4.26V349.6Z"/>
  <path class="cls-1" d="M108.49,335.7c0-.59,0-2,.61-2.32a4.1,4.1,0,0,1,.81-.3c.46-.13.93-.27.93-.71s-.16-.77-1.25-.77a8.39,8.39,0,0,0-1.38.1c-.79.07-1.68.15-2.2.15s-2.07-.07-3-.11h-.88c-.25,0-1.17.11-1.17.7s.51.59,1,.68a3.66,3.66,0,0,1,1.12.34c.36.18.59,1,.59,2.16V353c0,1.83-.15,2.68-.55,3.15a1.08,1.08,0,0,1-.88.35c-.52,0-1,.36-1,.73a.88.88,0,0,0,1,.81h.47c.58,0,1.64-.12,3.4-.12,1.2,0,2.76.07,3.69.11h.76c.53,0,.92-.31.92-.74s-.33-.64-.79-.69l-.41-.07a2.51,2.51,0,0,1-.8-.19c-.91-.66-.94-1.61-.93-5.54Z"/>
  <path class="cls-1" d="M123.67,333c.27,0,.78-.15.78-.67,0-.3-.19-.66-1.1-.66a14.3,14.3,0,0,0-1.69.07,33.11,33.11,0,0,1-3.73,0c-.68,0-1.37-.07-2.06-.07-.34,0-1.39,0-1.39.7s.71.68,1.17.75h.24c1.32.31,2,1.51,2.53,2.82L128.15,358c.1.21.34.68.84.68a1.11,1.11,0,0,0,.92-.69l9.55-21.52a7.8,7.8,0,0,1,1.93-3,1.92,1.92,0,0,1,1-.36,1.58,1.58,0,0,0,.6-.16l.09-.07a.52.52,0,0,0,.18-.37c0-.18-.08-.74-1.17-.74-.45,0-.89,0-1.32.09a12.84,12.84,0,0,1-2.48,0c-.43,0-.87-.07-1.36-.08a.91.91,0,0,0-.66.19.69.69,0,0,0-.19.52c0,.42.39.57.62.66a.67.67,0,0,1,.53.64,5.42,5.42,0,0,1-.4,1.76l-6.53,14.84-.07.12-.12-.24-6-13.6a13.81,13.81,0,0,1-.94-3.14C123.15,333.19,123.22,333.13,123.67,333Z"/>
  <path class="cls-1" d="M147.09,356c-.15.39-.63.49-1.24.59s-1.1.17-1.1.74a.65.65,0,0,0,.2.46,1.82,1.82,0,0,0,1.28.31,17.42,17.42,0,0,0,1.91-.07,15.22,15.22,0,0,1,1.76-.07H154c1.33,0,2.66.06,4.11.06a2.1,2.1,0,0,0,1.31-.44,2.36,2.36,0,0,0,.37-.75c.06-.17.13-.36.22-.57a8.3,8.3,0,0,0,.75-2.31c0-.73-.39-.84-.63-.84-.49,0-.84.88-.94,1.2a2.34,2.34,0,0,1-1.21,1.13,11,11,0,0,1-3.16.38,2.67,2.67,0,0,1-2.1-.55c-.3-.28-.31-.55-.31-1.14v-8.8h3.37a2.24,2.24,0,0,1,1.2.18,1.87,1.87,0,0,1,.5,1.1c.08.37.19.89.74.89a.6.6,0,0,0,.44-.19,1.28,1.28,0,0,0,.22-1V344a5.63,5.63,0,0,1,.1-.9,5.58,5.58,0,0,0,.12-1c0-.38,0-1.53-.78-1.53s-.73,1.09-.73,1.09v.15a1.58,1.58,0,0,1-.42.94,2.51,2.51,0,0,1-1.49.27h-3.17v-9.16a1.73,1.73,0,0,1,.45,0h2.45a9.31,9.31,0,0,1,2.17.21,2,2,0,0,1,1.25,1.23,2.07,2.07,0,0,1,0,.23c0,.34.14,1,.77,1s.6-.65.6-1a10.17,10.17,0,0,0-.06-1.31,8.85,8.85,0,0,1-.05-1.26,1,1,0,0,1,0-.16,1.25,1.25,0,0,0-.15-1,.64.64,0,0,0-.46-.19h-1.94a15,15,0,0,0-1.69,0l-1.35.06c-1.81,0-3.65.07-5.46.07a9.85,9.85,0,0,1-1.43-.07,10.55,10.55,0,0,0-1.49-.07c-.78,0-1.17.23-1.17.7s.58.62,1.14.73a2.76,2.76,0,0,1,1,.29,7.37,7.37,0,0,1,.47,2.81v12.25C147.54,354,147.26,355.54,147.09,356Z"/>
  <path class="cls-1" d="M184.24,338.33c0-4-3.56-6.73-8.66-6.73a14,14,0,0,0-2.21.12,18.08,18.08,0,0,1-2.63.13c-1.33,0-2.63-.07-3.41-.11h-.71c-.27,0-1,0-1,.77,0,.49.49.59.92.68a3.45,3.45,0,0,1,1.43.56,2.7,2.7,0,0,1,.39,1.51v18.61c0,1.27-.13,2.18-.76,2.49a4.93,4.93,0,0,1-.64.24c-.51.17-1,.33-1,.78,0,.7,1.06.7,1.46.7h1.07c.84,0,2-.1,2.61-.1s1.84,0,2.72.1h1.12c1,0,1.13-.54,1.13-.77,0-.48-.53-.59-1-.69a2.78,2.78,0,0,1-.59-.15l-.21-.1c-.25-.13-.37-.19-.47-.42a10.45,10.45,0,0,1-.53-4.17V347h1.32c.76,0,1.16.6,1.75,1.59a12.21,12.21,0,0,0,.73,1.15l4.2,5.46a7.76,7.76,0,0,0,6.44,2.75H190c.43,0,1.72,0,1.72-.85s-.79-.71-1.21-.71a2.12,2.12,0,0,1-.37,0c-1.55-.27-3.35-2.42-4.94-4.31l-5.31-6.43-.09-.12h0C183.47,343.29,184.24,340.38,184.24,338.33ZM177,344.59l-.15.06c-.12.06-.3.14-1.33.14h-2.28v-9.55c0-.8.21-1.21.63-1.21h.87c3.19,0,4.65,2.88,4.65,5.55C179.4,343.21,178.22,344,177,344.59Z"/>
  <path class="cls-1" d="M199.53,356.29c-3.21,0-4.21-1.42-4.71-2.66a3.67,3.67,0,0,1-.23-1.14c-.05-.51-.11-1.15-.74-1.15-1,0-1,2.28-1,2.54v2.35a1.11,1.11,0,0,0,.87,1.23l.72.23a12,12,0,0,0,4.53.8,8.89,8.89,0,0,0,5.5-1.67,7.51,7.51,0,0,0,3.23-6.37c0-3.9-2.87-6.1-5-7.41l-2.92-1.77c-2.25-1.38-3-2.48-3-4.38a3.46,3.46,0,0,1,3.39-3.53h.18a4.69,4.69,0,0,1,3.42,1.08,3.65,3.65,0,0,1,1,1.51,3.19,3.19,0,0,1,.07.69c0,.58.05,1.46.79,1.46s.7-.49.75-.82v-.08a15.83,15.83,0,0,0,.19-2.12v-1.94a2.8,2.8,0,0,1,.09-.46,1.32,1.32,0,0,0,0-1l-.19-.18h-.18a1.6,1.6,0,0,0-.62.13,1.72,1.72,0,0,1-.68.12,7.06,7.06,0,0,1-.84-.14,17,17,0,0,0-3.39-.43c-4.85,0-7.86,2.55-7.86,6.66a8.46,8.46,0,0,0,3.75,7.26l3.86,2.49c2.21,1.44,3.23,2.86,3.23,4.46C203.74,354.8,202.25,356.29,199.53,356.29Z"/>
  <path class="cls-1" d="M220.75,335.7c0-.59,0-2,.61-2.32a4,4,0,0,1,.82-.3c.45-.13.92-.27.92-.71s-.16-.77-1.24-.77a8.5,8.5,0,0,0-1.39.1c-.78.07-1.67.15-2.19.15s-2.07-.07-3-.11h-.88c-.24,0-1.17.11-1.17.7s.52.59,1,.68a3.69,3.69,0,0,1,1.11.34c.36.18.6,1,.6,2.16V353c0,1.83-.15,2.68-.56,3.15a1.07,1.07,0,0,1-.88.35c-.51,0-1,.36-1,.73a.89.89,0,0,0,1,.81H215c.57,0,1.63-.12,3.39-.12,1.2,0,2.76.07,3.7.11h.75c.53,0,.92-.31.92-.74a.78.78,0,0,0-.78-.69l-.41-.07a2.52,2.52,0,0,1-.81-.19c-.91-.66-.94-1.61-.93-5.54Z"/>
  <path class="cls-1" d="M240.94,347.84V341c0-3.14,0-5.55.07-6.3v-.16h3.8c1.68,0,2,.43,2.21.66a1.64,1.64,0,0,1,.07.49c0,.4,0,1,.65,1s.73-.83.8-1.72a5.27,5.27,0,0,1,.11-.93h0c.06-.33.14-.66.2-.91a2.63,2.63,0,0,0,.1-.49.88.88,0,0,0-.75-1h-.49c-1,0-3.51.13-4.56.13h-8.93c-1.06,0-3-.11-3.74-.21a1.81,1.81,0,0,1-.54-.17,1.51,1.51,0,0,0-.64-.16c-.59,0-.69.47-.78.84a4.67,4.67,0,0,1-.12.47,20.87,20.87,0,0,0-.59,3,1.22,1.22,0,0,0,.23.92.62.62,0,0,0,.43.18.67.67,0,0,0,.67-.67h0a.52.52,0,0,1,.07-.23,2.73,2.73,0,0,0,.3-.4c.24-.37.57-.86,1-.86h5.28a.24.24,0,0,1,.12,0,1.41,1.41,0,0,1,0,.48l.11,4.36v10.85a43.28,43.28,0,0,1-.27,5.81c-.14.43-.58.5-1.24.57-.49,0-1.16.1-1.16.74s.78.67,1.2.67h1.05c1,0,2.54-.08,3.25-.08h2c.73,0,1.42.06,1.72.06.6,0,1.43,0,1.43-.74s-.72-.68-1.11-.7a2.07,2.07,0,0,1-.47-.06,1.89,1.89,0,0,1-1.06-.58c-.48-.67-.46-4.09-.44-6.58Z"/>
  <path class="cls-1" d="M260.52,332.52c0-.54-.5-.81-1.49-.81-.61,0-1.29,0-2,.07a27.37,27.37,0,0,1-3.39,0c-.51,0-1-.07-1.57-.07a1.89,1.89,0,0,0-1.38.33.66.66,0,0,0-.2.48c0,.49.65.63,1.55.82a4.93,4.93,0,0,1,.58.13,4.78,4.78,0,0,1,1.46,1.56l7.47,10.57a1.85,1.85,0,0,1,.36,1.27v6.72c0,.51,0,2-.41,2.43a2.68,2.68,0,0,1-.8.46h-.22c-.47.08-1.17.19-1.17.76a.6.6,0,0,0,.19.45,2,2,0,0,0,1.41.29c.59,0,1.21,0,1.84-.06h3.57c.61,0,1.22.06,1.79.06h.27a1.55,1.55,0,0,0,1.09-.29.65.65,0,0,0,.21-.49.63.63,0,0,0-.2-.47,1.44,1.44,0,0,0-1-.23,2.12,2.12,0,0,1-1.3-.66,2.53,2.53,0,0,1-.35-1.57v-7.66a4.1,4.1,0,0,1,.51-1.8l7.12-9.61a9.29,9.29,0,0,1,1.93-1.94,4.41,4.41,0,0,1,1.06-.25h.06c.78,0,.89-.36.89-.56a.65.65,0,0,0-.19-.48,1.32,1.32,0,0,0-.94-.26c-.66,0-1.24,0-1.85.06a21.46,21.46,0,0,1-2.66,0c-.34,0-.69-.06-1-.06s-1.28,0-1.28.78c0,.42.44.5.7.55.48.09.56.15.56.31a8.14,8.14,0,0,1-1.55,3.29l-4.3,5.92-.06.09-.1.13-.18-.21-5.5-7.71a3.82,3.82,0,0,1-.75-1.61l.4-.1C260,333.06,260.52,333,260.52,332.52Z"/>
  <path class="cls-1" d="M254.33,276c.55,0,3-3.64,3.45-5.09a10.36,10.36,0,0,0,.4-2.1c0-1.24-1-3-1.45-3a2.65,2.65,0,0,0-2.7,2.5c0,1.14,1.25,2.24,1.25,3.74s-1.3,3.1-1.3,3.7C254,276,254.08,276,254.33,276Z"/>
  <path class="cls-1" d="M47.13,303.53c-4.58,0-6.17-2-7-4-.55-1.34-.15-2.84-.85-2.84s-.84,2.29-.84,3,0,2.73,0,3.23a1,1,0,0,0,.84,1.19,18.45,18.45,0,0,0,7.06,1.39,11.85,11.85,0,0,0,7.26-2.19A9.85,9.85,0,0,0,57.92,295c0-4.77-3.24-7.65-6.67-9.74l-4-2.43c-3.08-1.89-4.38-3.53-4.38-6.47A5.24,5.24,0,0,1,48,271h.28a7,7,0,0,1,5,1.6,5.27,5.27,0,0,1,1.59,2.33c.25.85-.1,2.59.7,2.59.45,0,.45-.3.55-.85a22.53,22.53,0,0,0,.24-2.78c0-.6-.05-2-.05-2.64s.5-1.69.1-1.69c-.64,0-.74.35-1.79.35a41.25,41.25,0,0,0-5.81-.79c-6.22,0-10.29,3.08-10.29,8.65a11.18,11.18,0,0,0,4.92,9.54l5.32,3.43c2.88,1.89,4.67,4,4.67,6.56C53.44,301.55,50.91,303.53,47.13,303.53Z"/>
  <path class="cls-1" d="M88.53,269.73c-.1,0-5,.2-6.81.2H69.45c-1.45,0-4.13-.15-5.22-.3-.75-.1-1-.44-1.54-.44s-.45.44-.75,1.44a31.12,31.12,0,0,0-.8,3.82c0,.4,0,1.1.4,1.1.6,0,.25-.7.65-1.1s1-1.88,2.14-1.88h7.25c.8,0,.75.64.75,1.19l.15,6v14.92a57.79,57.79,0,0,1-.4,8.15c-.55,1.69-3.28.69-3.28,1.64,0,.4.6.4,1.14.4s4.43-.15,5.92-.15c1,0,4.22.15,5.07.15s1.44,0,1.44-.5-1.19-.35-1.79-.55a3,3,0,0,1-1.74-1c-.89-1.24-.7-7-.7-11.44V282c0-4.32,0-7.65.1-8.7.05-.84.2-.69,1-.69H84c2.69,0,3.18.79,3.43,1.09.4.45,0,1.94.6,1.94s.49-2,.74-3.23c.15-.85.4-1.69.4-1.84C89.18,270,88.88,269.73,88.53,269.73Z"/>
  <path class="cls-1" d="M90.52,300.15c-2.33,0-2.73,1.54-2.73,2.39v.06h0a2.59,2.59,0,0,0,2.48,2.69h.3a2.19,2.19,0,0,0,2.34-1.81,4.27,4.27,0,0,0,.1-.93v-.06a2.24,2.24,0,0,0-2.49-2.34Z"/>
  <path class="cls-1" d="M136.75,303.33a3,3,0,0,1-1.34.5c-.85,0-1,.2-1,.6s.35.45,1.74.45c2.09,0,2.14-.15,4-.15,3.28,0,4.27.15,5.17.15.4,0,1.84.1,1.84-.6s-.5-.25-1.54-.7a3,3,0,0,1-1.15-1.44,19.26,19.26,0,0,1-.79-4.07s-.8-5.12-1.29-8.75c-.9-6.51-1.69-12.93-2.54-19.39-.2-1.64-1.19-1.29-1.54-.55,0,0-3.28,7.26-3.88,8.6L127,294.84c-.05.09-.25,0-.3,0s-8.4-17.1-8.8-17.9-3.18-7-3.18-7c-.4-.84-1.39-1.79-1.64,0,0,0-1.54,10.39-2.39,17-.54,4.52-1.39,11.48-1.39,11.48-.25,2.14-.55,3.93-2.19,5.07-.79.55-1.64.6-1.64,1,0,.6.4.55,1.1.55.49,0,2.78-.2,3.87-.2s3.93.2,4.43.2c.74,0,1-.1,1-.5s-1.49-.25-2.68-1c-.6-.34-.85-1.49-.85-3,0-.74.15-2.88.3-4.22L114,283.1c.1-.79.3-1,.6-.39,0,0,2.53,5.12,3.88,7.9,2.43,5.22,5.91,12.53,5.91,12.53.85,1.79,1.34,1.69,2.09,0,0,0,3.38-7.61,5.27-11.83,1.19-2.64,3.33-8.06,3.33-8.06.3-.69.6-.59.65-.1l1.83,12.53a27,27,0,0,1,.25,3.68C137.79,301.4,137.54,302.89,136.75,303.33Z"/>
  <path class="cls-1" d="M171.53,304.48c0,.45.89.4,1.14.4,2.19,0,4.77-.15,7-.15,1.39,0,2.83.15,4.22.15.3,0,1.1,0,1.1-.45,0-.9-2.64-1-3.23-1.74a12,12,0,0,1-1.5-2.39l-12.57-31.11c-.1-.3-.4-.9-.8-.9s-.49.4-.59.65L153.38,300.7c-.69,1.69-1.44,2.78-3.33,3.13-.3,0-1.34,0-1.34.5s.84.55,1.24.55c1.59,0,3-.15,4.63-.15,1.39,0,2.73.15,4.12.15.45,0,.9,0,.9-.6s-1.64-.6-2-.7c-.65-.19-1.59-.34-1.59-1.24a11.7,11.7,0,0,1,.69-3.13l2-5.17c.55-1.49.95-1.49,2.39-1.49h8.85c1.24,0,1.44,1.14,2,2.48l1.89,4.68a7.73,7.73,0,0,1,.45,2.68C174.21,304.33,171.53,303.48,171.53,304.48Zm-3.19-14.27H161c-.35,0-.6.1-.6-.35a11,11,0,0,1,.6-1.59c1.69-3.82,3.33-8.1,3.83-9.24.09-.2,0-.4.29-.4s.4.65.5.85l3.63,9a7,7,0,0,1,.4,1.34c0,.49-1,.39-1.31.39Z"/>
  <path class="cls-1" d="M211,278.33c0-5.62-5.27-8.75-11.39-8.75-2,0-4.17.35-6.66.35s-5.17-.2-5.66-.2c-.75,0-.85.2-.85.55,0,.55,1.64.25,3,1.29a3.87,3.87,0,0,1,.75,2.49v25.6c0,1.89-.2,3.33-1.34,3.87-.8.4-1.94.55-1.94,1s.89.45,1.49.45,3.68-.2,5.07-.2,4.77.2,5.27.2c.7,0,1-.2,1-.55s-1.39-.4-2-.7-.9-.35-1.15-.94-.79-2.29-.79-6v-6.61c0-.3.15-.4.44-.4h1.89c1.94,0,2.49,2.19,3.83,4l5.77,7.51c2,2.63,5.17,3.58,8.45,3.58h3.18c.59,0,1.84,0,1.84-.65s-1.15-.4-1.74-.5c-2.29-.39-4.77-3.33-7.11-6.11L205,288.76c-.35-.45-.44-.6-.2-.79C205.37,287.63,211,284.74,211,278.33Zm-9.35,9.1c-.3.1-.34.3-2.18.3h-1.79c-.55,0-1.79.1-1.79-.5V274.11c0-1,.24-2.19,1.39-2.19h1.19c4.82,0,6.91,4.42,6.91,8.15,0,5-1.55,6.41-3.69,7.36Z"/>
  <path class="cls-1" d="M228,270.33c0-.6-1.19-.6-1.54-.6-1.64,0-3.73.2-5.37.2-1.34,0-2.73-.2-4.08-.2-.39,0-1.73,0-1.73.6,0,.4,2.18.64,2.63.84a7.56,7.56,0,0,1,2.34,2.49L230.41,288a3,3,0,0,1,.59,2v9.25c0,.94,0,3-.74,3.73a4.25,4.25,0,0,1-1.29.74c-.35.1-1.55.15-1.55.6s1.35.5,1.69.5c1.59,0,3.43-.15,5-.15s3.33.15,4.87.15c.39,0,1.64.1,1.64-.55s-.85-.45-1.2-.45a3.44,3.44,0,0,1-2.18-1.09,3.87,3.87,0,0,1-.6-2.49V289.76a6,6,0,0,1,.8-2.78l9.79-13.22a12.86,12.86,0,0,1,2.88-2.83,7,7,0,0,1,1.69-.4c.1,0,.75,0,.75-.25,0-.55-.85-.5-1.2-.5-1.59,0-3.13.15-4.72.15-.89,0-1.84-.15-2.73-.15-.4,0-1.25,0-1.25.55s1.74,0,1.74,1.19c0,1.34-1.44,3.73-2.23,4.82l-5.92,8.16c-.15.19-.35.54-.59.54s-.55-.35-.7-.54l-7.61-10.64a5.48,5.48,0,0,1-1.14-2.69C226.23,270.68,228,270.73,228,270.33Z"/>
  <path class="cls-1" d="M268.1,303.53c-4.57,0-6.16-2-7-4-.55-1.34-.15-2.84-.84-2.84s-.85,2.29-.85,3,0,2.73,0,3.23a1,1,0,0,0,.85,1.19,18.35,18.35,0,0,0,7,1.39,11.83,11.83,0,0,0,7.26-2.19A9.85,9.85,0,0,0,278.8,295c0-4.77-3.23-7.65-6.66-9.74l-4-2.43c-3.08-1.89-4.37-3.53-4.37-6.47a5.23,5.23,0,0,1,5.08-5.37h.33a7,7,0,0,1,5,1.6,5.19,5.19,0,0,1,1.59,2.33c.25.85-.09,2.59.7,2.59.45,0,.45-.3.55-.85a20.93,20.93,0,0,0,.25-2.78c0-.6,0-2,0-2.64s.49-1.69.1-1.69c-.65,0-.75.35-1.79.35a41.71,41.71,0,0,0-5.82-.79c-6.21,0-10.29,3.08-10.29,8.65a11.18,11.18,0,0,0,4.92,9.54l5.32,3.43c2.88,1.89,4.67,4,4.67,6.56C274.41,301.55,271.88,303.53,268.1,303.53Z"/>
  <rect class="cls-1" x="37.5" y="254.94" width="241.48" height="2.5"/>
  <rect class="cls-1" x="37.5" y="317.03" width="241.48" height="2.5"/>
  <rect class="cls-1" x="37.5" y="370.19" width="241.48" height="2.5"/>
  <path class="cls-1" d="M105.3,169.11c9.61-5.92,17-4.41,17-4.41V122.79l4.47-3.91-16.26-6.26-17.81-.5L72,115.59l-6,5.59,5.27,2,4.34-3.48,17.2-2.85v64.43A37.73,37.73,0,0,1,105.3,169.11Z"/>
  <path class="cls-1" d="M122.42,143.16a313.24,313.24,0,0,1,36.25-2.09c63,0,119.21,18.64,155.65,47.73-31.63-33.67-89.5-56.21-155.65-56.21a281.8,281.8,0,0,0-36.25,2.31Z"/>
  <path class="cls-1" d="M71.33,146.8c-28.25,9.89-51.9,24.43-68.41,42,18.35-14.65,41.7-26.64,68.41-35Z"/>
  <polygon class="cls-1" points="99.01 3.96 96.94 3.08 96.94 10.14 99.01 9.76 99.01 3.96"/>
  <polygon class="cls-1" points="94.36 15.46 94.36 13.76 86.35 15.12 88.72 16.45 94.36 15.46"/>
  <path class="cls-1" d="M80.16,128.33c-2.16,3-2.26,7-.2,8.86s5.48,1,7.65-2.06,2.26-7,.21-8.86S82.33,125.31,80.16,128.33Zm5.76,2.27a.47.47,0,0,1-.41.06.54.54,0,0,1-.07.39c-.12.16-.19.1-.39.32a2.15,2.15,0,0,0-.6,1.34.65.65,0,0,1-.67.48.6.6,0,0,1-.59-.61s0,0,0-.05a8.67,8.67,0,0,1,.27-1.17,9.17,9.17,0,0,0,.09-1.1v-1.17c0-.08-.16-.11-.15-.25s.2-.23.2-.23l-.13-.27a.37.37,0,0,1-.2-.38,1.39,1.39,0,0,1,.33-.69,4.59,4.59,0,0,0,.31-.92,2.16,2.16,0,0,0,.19.67c.14.24.38.45.41.67a.51.51,0,0,1-.14.51l-.18.16v.2s.2.06.2.24a.32.32,0,0,1-.16.24V130a9.34,9.34,0,0,0,.11,1.19,1,1,0,0,0,.32-.23c.11-.12.13-.32.19-.43s.28-.12.28-.12a.49.49,0,0,1,0-.55c.12-.16.36-.08.53-.11a1.68,1.68,0,0,0,.44-.22,2.93,2.93,0,0,0-.08.44C86,130.19,86.12,130.43,85.92,130.6Z"/>
  <path class="cls-1" d="M85.92,124.51c-2.91-1.06-6.35,1.07-7.7,4.77a7.43,7.43,0,0,0,.81,7.13,7.64,7.64,0,0,1-.46-6.65c1.34-3.69,4.79-5.83,7.69-4.77a4.5,4.5,0,0,1,2,1.47A4.7,4.7,0,0,0,85.92,124.51Z"/>
  <polygon class="cls-1" points="121.85 115.31 121.85 103.77 121.85 102.71 121.85 102.7 117.19 101.06 115.75 100.55 111 98.88 111 111.2 113.7 112.17 113.7 101.04 115.75 101.72 115.75 112.97 117.19 113.52 117.19 102.2 118.86 102.75 118.86 114.16 121.85 115.31"/>
  <path class="cls-1" d="M71.22,66.88v2.3L65.43,75l8.12,5.4V99.6l2.8-.41h.06V75.45a1.54,1.54,0,0,1,.69-1.2,2.33,2.33,0,0,1,1.35-.41H79v25l2.83-.41V83.12l1.22.21,2.78.51,1.9.33V97.53l2.82-.41V84.68h0V70.43a1.82,1.82,0,0,1,.66-1.15,2,2,0,0,1,1.34-.57h.61V96.79l2.72.08V85h9.85V97.19l2.82.08V85h0V73.45a1.64,1.64,0,0,1,.75-1.45,2.47,2.47,0,0,1,1.41-.38H111V97.34l2.68.89V83.69l5.2-2v18.4l3,1V78.75l9.5-8.47V68.85l-6-3.54a32,32,0,0,0-7.62-11,31.15,31.15,0,0,0-15-7.38v-.75a4.34,4.34,0,0,0-.58-.19.63.63,0,0,1-.47-.39,3.39,3.39,0,0,0-1.21-1.41,2.87,2.87,0,0,1-1-.71A4.71,4.71,0,0,0,102.05,42a5.84,5.84,0,0,0,1.33-3.8,5.27,5.27,0,0,0-1.5-3.42c-.79-.77-.69-.56-.23-.72.16,0,.06-.67.06-.67s-.52-.24-.8-.34-.43-.16-.48-.44a2.72,2.72,0,0,0-1.2-1.44V13.79L108,12.26V8.73l-1.86-.91v3.12l-9,1.52v18.6s.49.41.68.59.69.62.51.74a24.12,24.12,0,0,1-2.8,0,11.11,11.11,0,0,0-2.65.3c-.27.09-.67.4.38.75a8,8,0,0,0,2.47.22,4,4,0,0,1,.67.42,5.94,5.94,0,0,1-1,3.65,5.21,5.21,0,0,1-2,1.81,2.57,2.57,0,0,1-1.7.4c-.49-.09-1,0-.39,1a4.13,4.13,0,0,0,1.34,1.51,6.94,6.94,0,0,0,3.67,1.28c.78.22,1.59.47,2,.62a10.27,10.27,0,0,1,2.14,1.08c.4.27.51.46-.37.21L96.58,45l-5.52,1.38v.76l4.69-.28a13,13,0,0,0-2.39,4.34A18,18,0,0,0,92.63,57V60.1L68.46,64l-7,7.15,3.73,1.71Z"/>
  <polygon class="cls-1" points="74.36 101 73.56 101.11 73.56 101.55 73.56 113.82 76.4 113.35 76.41 100.7 74.36 101"/>
  <polygon class="cls-1" points="108.49 111.12 108.49 99.46 108.49 98.74 108.49 98.73 105.67 98.65 105.67 98.66 93.13 98.31 93.13 110.64 95.89 110.72 95.89 99.41 98.18 99.47 98.18 110.8 99.61 110.84 99.61 99.51 101.92 99.57 101.92 110.91 103.36 110.96 103.36 99.61 105.67 99.68 105.67 111.03 108.49 111.12"/>
  <polygon class="cls-1" points="85.09 99.43 83.92 99.59 83.92 99.6 78.79 100.35 78.78 112.95 81.66 112.48 81.66 100.96 83.92 100.63 83.92 112.1 85.35 111.87 85.35 100.42 87.69 100.08 87.89 111.44 90.48 111.02 90.49 98.67 85.35 99.39 85.35 99.39 85.09 99.43"/>
</svg>
